<?xml version="1.0" encoding="utf-8"?>
<!-- Generator: Adobe Illustrator 19.0.0, SVG Export Plug-In . SVG Version: 6.00 Build 0)  -->
<svg version="1.1" id="Layer_1" xmlns="http://www.w3.org/2000/svg" xmlns:xlink="http://www.w3.org/1999/xlink" x="0px" y="0px"
	 viewBox="-266 357.7 78.6 79.3" style="enable-background:new -266 357.7 78.6 79.3;" xml:space="preserve">
<style type="text/css">
	.st0{fill:#212121;}
	.st1{fill:#FFFFFF;}
</style>
<circle id="XMLID_2_" class="st0" cx="-226.9" cy="397.5" r="39.5"/>
<path id="XMLID_29_" class="st1" d="M-208.8,380.5v32.7c0,1.1-0.9,2-2,2h-9.3v-14.3h4.8l0.7-5.5h-5.5v-3.5c0-1.6,0.4-2.7,2.7-2.7
	h2.9v-5c-0.5-0.1-2.2-0.2-4.3-0.2c-4.2,0-7.1,2.6-7.1,7.3v4.1h-4.8v5.5h4.8v14.2h-17.6c-1.1,0-2-0.9-2-2v-32.6c0-1.1,0.9-2,2-2h32.7
	C-209.7,378.4-208.8,379.3-208.8,380.5z"/>
</svg>
