<?xml version="1.0" encoding="utf-8"?>
<!-- Generator: Adobe Illustrator 19.0.0, SVG Export Plug-In . SVG Version: 6.00 Build 0)  -->
<svg version="1.1" id="Layer_1" xmlns="http://www.w3.org/2000/svg" xmlns:xlink="http://www.w3.org/1999/xlink" x="0px" y="0px"
	 viewBox="-266 357.7 78.6 79.3" style="enable-background:new -266 357.7 78.6 79.3;" xml:space="preserve">
<style type="text/css">
	.st0{fill:#212121;}
</style>
<g id="Facebook_6_">
	<path id="XMLID_3_" class="st0" d="M-226.9,437c-21.8,0-39.5-17.7-39.5-39.5c0-21.8,17.8-39.5,39.5-39.5
		c21.7,0,39.5,17.7,39.5,39.5C-187.4,419.3-205.1,437-226.9,437z M-226.9,361c-20.1,0-36.4,16.4-36.4,36.5
		c0,20.1,16.3,36.5,36.4,36.5s36.5-16.4,36.5-36.5C-190.4,377.4-206.8,361-226.9,361z"/>
	<path id="Facebook_1_" class="st0" d="M-208.8,413.1c0,1.1-0.9,2-2,2h-9.4v-14.2h4.8l0.7-5.5h-5.5v-3.5c0-1.6,0.4-2.7,2.7-2.7h2.9
		v-5c-0.5-0.1-2.2-0.2-4.3-0.2c-4.2,0-7.1,2.6-7.1,7.3v4.1h-4.8v5.5h4.8v14.2h-17.5c-1.1,0-2-0.9-2-2v-32.6c0-1.1,0.9-2,2-2h32.7
		c1.1,0,2,0.9,2,2V413.1z"/>
</g>
</svg>
