<?xml version="1.0" encoding="utf-8"?>
<!-- Generator: Adobe Illustrator 19.0.0, SVG Export Plug-In . SVG Version: 6.00 Build 0)  -->
<svg version="1.1" id="Layer_1" xmlns="http://www.w3.org/2000/svg" xmlns:xlink="http://www.w3.org/1999/xlink" x="0px" y="0px"
	 viewBox="0 0 78.6 79.3" style="enable-background:new 0 0 78.6 79.3;" xml:space="preserve">
<style type="text/css">
	.st0{fill:#212121;}
	.st1{fill:#FFFFFF;}
</style>
<circle id="XMLID_2_" class="st0" cx="39.5" cy="39.8" r="39.5"/>
<g id="LinkedIn_1_">
	<rect id="XMLID_21_" x="22.3" y="34.1" class="st1" width="7.2" height="22.8"/>
	<path id="XMLID_20_" class="st1" d="M49.1,33.8c-4.1,0-6.7,2.2-7.2,3.8v-3.6h-8.1c0.1,1.9,0,22.8,0,22.8h8.1V44.5
		c0-0.7,0-1.4,0.2-1.9c0.6-1.4,1.7-2.8,3.9-2.8c2.8,0,4.1,2.1,4.1,5.2v11.8h8.2V44.2C58.2,37.1,54.2,33.8,49.1,33.8z"/>
	<path id="XMLID_19_" class="st1" d="M25.7,23.3c-2.7,0-4.4,1.7-4.4,4c0,2.2,1.7,3.9,4.3,3.9h0.1c2.7,0,4.4-1.7,4.4-4
		C30,25,28.4,23.3,25.7,23.3z"/>
</g>
</svg>
