<?xml version="1.0" encoding="utf-8"?>
<!-- Generator: Adobe Illustrator 19.0.0, SVG Export Plug-In . SVG Version: 6.00 Build 0)  -->
<svg version="1.1" id="Layer_1" xmlns="http://www.w3.org/2000/svg" xmlns:xlink="http://www.w3.org/1999/xlink" x="0px" y="0px"
	 viewBox="0 0 78.6 79.3" style="enable-background:new 0 0 78.6 79.3;" xml:space="preserve">
<style type="text/css">
	.st0{fill:#212121;}
</style>
<g id="Instagram_7_">
	<path id="Instagram_1_" class="st0" d="M54.2,21.1H26.3c-2.4,0-4.3,2-4.3,4.4v28.1c0,2.4,1.9,4.4,4.3,4.4h27.8c2.4,0,4.3-2,4.3-4.4
		V25.5C58.5,23.1,56.6,21.1,54.2,21.1z M48.2,26.9c0-0.6,0.5-1.2,1.1-1.2h3.4c0.6,0,1.1,0.5,1.1,1.2v3.5c0,0.6-0.5,1.2-1.1,1.2h-3.4
		c-0.6,0-1.1-0.5-1.1-1.2V26.9z M40.3,32.5c3.9,0,7,3.2,7,7.1c0,3.9-3.1,7.1-7,7.1c-3.9,0-7-3.2-7-7.1
		C33.3,35.7,36.4,32.5,40.3,32.5z M55.1,53.3c0,0.6-0.5,1.2-1.1,1.2H26.6c-0.6,0-1.1-0.5-1.1-1.2V36.1H30c-0.6,0.9-0.8,2.5-0.8,3.5
		c0,6.2,5,11.2,11.1,11.2c6.1,0,11.1-5,11.1-11.2c0-1-0.1-2.6-0.9-3.5h4.6V53.3z"/>
	<path id="XMLID_4_" class="st0" d="M39.3,79.3C17.6,79.3,0,61.5,0,39.6S17.6,0,39.3,0s39.3,17.8,39.3,39.6S61,79.3,39.3,79.3z
		 M39.3,3C19.3,3,3,19.4,3,39.6s16.3,36.6,36.3,36.6s36.3-16.4,36.3-36.6S59.3,3,39.3,3z"/>
</g>
</svg>
